<svg width="1501" height="1125" viewBox="0 0 1501 1125" fill="none" xmlns="http://www.w3.org/2000/svg">
<rect width="1501" height="1125" fill="#1E1E1E"/>
<rect width="1500" height="1125" fill="#121212"/>
<g clip-path="url(#clip0_0_1)">
<path d="M929.2 185H570.8C528.385 185 494 219.385 494 261.8V620.2C494 662.615 528.385 697 570.8 697H929.2C971.615 697 1006 662.615 1006 620.2V261.8C1006 219.385 971.615 185 929.2 185Z" fill="white"/>
<path d="M790 411H832ZM740 411H782ZM691 411H733ZM642 411H683ZM592 411H634ZM642 365H683ZM691 365H733ZM740 365H782ZM740 319H782Z" fill="black"/>
<path d="M790 411H832M740 411H782M691 411H733M642 411H683M592 411H634M642 365H683M691 365H733M740 365H782M740 319H782" stroke="#1870A0" stroke-width="38"/>
<path d="M966 413C966 413 948 396 911 402C907 373 876 356 876 356C876 356 847 391 868 430C862 433 852 437 837 437H562C557 456 557 582 695 582C794 582 868 536 903 452C955 456 966 413 966 413Z" fill="#1870A0"/>
</g>
<path d="M130 767.5C2.5 944 0 845 0 845V1125H1500V841.5C1500 841.5 1453 933.5 1238 784.5C1120 1041 719 925 719 925C719 925 233.5 965 130 767.5Z" fill="#1D4971"/>
<path d="M345 845C203 1028.5 0 845 0 845V1125H1500V927C1500 927 1252.5 918 1037.5 769C919.5 1025.5 665 845 665 845C665 845 448.5 1042.5 345 845Z" fill="url(#paint0_linear_0_1)" fill-opacity="0.2"/>
<path d="M0 845.5C0 845.5 364.942 1065.11 509.68 881.913C615.176 1079.08 850.63 830 850.63 830C850.63 830 1266.5 1137.99 1386.77 881.913C1490.4 1005.06 1499.39 1014.62 1500 1015.07V1015C1500 1015 1500.09 1015.13 1500 1015.07V1125H0V845.5Z" fill="#3995EB" fill-opacity="0.54"/>
<defs>
<linearGradient id="paint0_linear_0_1" x1="771" y1="899" x2="762" y2="1022" gradientUnits="userSpaceOnUse">
<stop stop-color="#13EDE0"/>
<stop offset="1" stop-color="white"/>
</linearGradient>
<clipPath id="clip0_0_1">
<rect width="512" height="512" fill="white" transform="translate(494 185)"/>
</clipPath>
</defs>
</svg>
